<svg width="41" height="39" viewBox="0 0 41 39" fill="none" xmlns="http://www.w3.org/2000/svg">
<path d="M19 0C29.4934 0 38 8.50659 38 19C38 23.4604 36.4619 27.561 33.8887 30.8027C33.9495 30.8414 34.0075 30.8864 34.0605 30.9395L40.0605 36.9395L40.1299 37.0156C40.4498 37.4084 40.4265 37.9876 40.0605 38.3535C39.6946 38.7194 39.1154 38.7428 38.7227 38.4229L38.6465 38.3535L32.6465 32.3535C32.6237 32.3308 32.6031 32.3065 32.583 32.2822C29.1335 35.8093 24.3232 38 19 38C8.50659 38 0 29.4934 0 19C0 8.50659 8.50659 0 19 0ZM19 2C9.61116 2 2 9.61116 2 19C2 28.3888 9.61116 36 19 36C28.3888 36 36 28.3888 36 19C36 9.61116 28.3888 2 19 2Z" fill="#F7F7F7"/>
</svg>
